<svg xmlns="http://www.w3.org/2000/svg"  viewBox="0 0 50 50" width="50px" height="50px"><path d="M 17.189453 5.0214844 A 1.0001 1.0001 0 0 0 16.509766 5.2871094 L 0.3203125 20.308594 A 1.0001 1.0001 0 0 0 1 22.042969 L 6.6074219 22.042969 A 1.0001 1.0001 0 0 0 7.296875 21.765625 L 8.0429688 21.056641 L 8.0429688 32.150391 C 8.0429687 34.22831 9.751284 35.9375 11.828125 35.9375 L 23.345703 35.9375 L 32.265625 45.595703 A 1.0001 1.0001 0 0 0 34 44.917969 L 34 35.9375 L 38.171875 35.9375 C 40.249794 35.9375 41.957031 34.229185 41.957031 32.152344 L 41.957031 22.025391 L 49 22.025391 A 1.0001 1.0001 0 0 0 49.689453 20.300781 L 33.916016 5.296875 A 1.0001 1.0001 0 0 0 33.226562 5.0214844 L 17.189453 5.0214844 z M 17.582031 7.0214844 L 32.826172 7.0214844 L 46.498047 20.025391 L 41.238281 20.025391 A 1.0001 1.0001 0 0 0 40.683594 20.025391 L 33.310547 20.025391 L 20.140625 8.0644531 A 1.0001 1.0001 0 0 0 18.779297 8.0800781 L 6.2070312 20.042969 L 3.546875 20.042969 L 17.582031 7.0214844 z M 19.484375 10.169922 L 32.251953 21.765625 A 1.0001 1.0001 0 0 0 32.925781 22.025391 L 39.957031 22.025391 L 39.957031 32.152344 C 39.957031 33.135503 39.155956 33.9375 38.171875 33.9375 L 33 33.9375 A 1.0001 1.0001 0 0 0 32 34.9375 L 32 42.361328 L 24.517578 34.257812 A 1.0001 1.0001 0 0 0 23.783203 33.9375 L 11.828125 33.9375 C 10.844966 33.9375 10.042969 33.134471 10.042969 32.150391 L 10.042969 19.339844 A 1.0001 1.0001 0 0 0 10.029297 19.166016 L 19.484375 10.169922 z"/></svg>